<?xml version="1.0" encoding="UTF-8" standalone="no"?>
<!-- Created with Inkscape (http://www.inkscape.org/) -->

<svg
   width="1007.3421"
   height="266.98026"
   viewBox="0 0 1007.3421 266.98025"
   version="1.1"
   id="svg1"
   inkscape:version="1.3.2 (091e20e, 2023-11-25)"
   sodipodi:docname="ambiambigram.svg"
   xmlns:inkscape="http://www.inkscape.org/namespaces/inkscape"
   xmlns:sodipodi="http://sodipodi.sourceforge.net/DTD/sodipodi-0.dtd"
   xmlns="http://www.w3.org/2000/svg"
   xmlns:svg="http://www.w3.org/2000/svg">
  <sodipodi:namedview
     id="namedview1"
     pagecolor="#ffffff"
     bordercolor="#000000"
     borderopacity="0.25"
     inkscape:showpageshadow="2"
     inkscape:pageopacity="0.0"
     inkscape:pagecheckerboard="0"
     inkscape:deskcolor="#d1d1d1"
     inkscape:document-units="px"
     inkscape:zoom="0.78040837"
     inkscape:cx="415.80794"
     inkscape:cy="172.34567"
     inkscape:window-width="1888"
     inkscape:window-height="1464"
     inkscape:window-x="816"
     inkscape:window-y="25"
     inkscape:window-maximized="0"
     inkscape:current-layer="layer1" />
  <defs
     id="defs1" />
  <g
     inkscape:label="Layer 1"
     inkscape:groupmode="layer"
     id="layer1"
     transform="translate(-15.376565,-449.76453)">
    <g
       id="g84"
       transform="matrix(1.7958809,0,0,1.7958809,-354.49242,-381.12091)"
       style="fill:none;fill-opacity:1;stroke:#29313d;stroke-opacity:1;stroke-width:2.33979139;stroke-dasharray:none">
      <path
         d="m 377.41675,510.40029 c -1.152,0 -2.67136,0.0971 -4.55665,0.28906 -1.89504,0.256 -3.80567,0.83056 -5.73437,1.72656 -1.93847,0.96 -3.68489,2.33691 -5.23828,4.12891 -1.6174,1.792 -2.66608,4.25658 -3.14453,7.39258 -0.33198,2.176 -0.2153,3.9353 0.34765,5.27929 0.56295,1.344 1.46263,2.36827 2.69922,3.07227 1.17259,0.704 2.60207,1.18345 4.29102,1.43945 1.62494,0.256 3.36666,0.38477 5.22265,0.38477 h 7.23316 l -1.53515,7.67969 h -9.17457 c -9.72799,0 -15.25605,4.35265 -16.58398,13.05664 -0.31245,2.04799 -0.10891,3.64683 0.61133,4.79883 0.65624,1.15199 1.61302,2.01579 2.86914,2.59179 1.25612,0.576 2.67539,0.92864 4.25586,1.05664 1.5067,0.19197 2.96309,0.28907 4.37109,0.28907 h 17.89844 l 0.81054,-3.83594 h 8.79102 l -2.40234,11.51562 h -29.72462 c -6.71999,0 -11.36498,-1.44031 -13.93359,-4.32031 -2.56866,-2.88 -3.45692,-6.91171 -2.66602,-12.0957 0.29293,-1.92 0.90106,-3.80807 1.82422,-5.66407 0.8494,-1.79199 1.96718,-3.45618 3.35352,-4.99218 1.31257,-1.472 2.8512,-2.75185 4.61719,-3.83985 1.75622,-1.024 3.68247,-1.69562 5.77929,-2.01562 l 0.0293,-0.19336 c -2.9993,-0.896 -5.23574,-2.59189 -6.71094,-5.08789 -1.48499,-2.432 -1.94913,-5.47115 -1.39257,-9.11914 0.49797,-3.264 1.58725,-6.20804 3.26757,-8.83203 1.61633,-2.624 3.68583,-4.86471 6.20899,-6.72071 2.4494,-1.792 5.22399,-3.20061 8.32422,-4.22461 3.09046,-0.96 6.33261,-1.43945 9.72461,-1.43945 h 25.60351 l -2.14843,7.67969 z"
         style="font-style:italic;font-size:96px;line-height:0.6;font-family:'Helvetica Neue';-inkscape-font-specification:'Helvetica Neue, Italic';letter-spacing:-2.59px;display:inline;fill:none;fill-opacity:1;stroke-width:2.33979139;stroke-linejoin:bevel;stroke:#29313d;stroke-opacity:1;stroke-dasharray:none"
         id="path58"
         sodipodi:nodetypes="ccccssccsccsscscsccccsssccccccscccsccc" />
      <path
         d="m 595.4095,563.58583 c 1.152,0 2.67135,-0.0971 4.55664,-0.28906 1.89505,-0.256 3.80568,-0.83056 5.73437,-1.72656 1.93847,-0.96 3.6849,-2.33691 5.23828,-4.12891 1.6174,-1.792 2.66609,-4.25658 3.14454,-7.39258 0.33198,-2.176 0.21529,-3.9353 -0.34766,-5.27929 -0.56295,-1.344 -1.46263,-2.36827 -2.69922,-3.07227 -1.17259,-0.704 -2.60207,-1.18345 -4.29101,-1.43945 -1.62494,-0.256 -3.36666,-0.38477 -5.22266,-0.38477 h -7.23316 l 1.53516,-7.67969 h 9.17456 c 9.72799,0 15.25606,-4.35265 16.58399,-13.05664 0.31245,-2.04799 0.10891,-3.64683 -0.61133,-4.79883 -0.65625,-1.15199 -1.61302,-2.01579 -2.86914,-2.59179 -1.25613,-0.576 -2.67539,-0.92864 -4.25586,-1.05664 -1.50671,-0.19197 -2.9631,-0.28907 -4.3711,-0.28907 h -17.89843 l -0.81055,3.83594 h -8.79102 l 2.40235,-11.51562 h 29.72461 c 6.71999,0 11.36499,1.44031 13.93359,4.32031 2.56866,2.88 3.45692,6.91171 2.66602,12.0957 -0.29293,1.92 -0.90106,3.80807 -1.82422,5.66407 -0.8494,1.79199 -1.96718,3.45618 -3.35351,4.99218 -1.31257,1.472 -2.8512,2.75185 -4.61719,3.83985 -1.75623,1.024 -3.68248,1.69562 -5.7793,2.01562 l -0.0293,0.19336 c 2.9993,0.896 5.23574,2.59189 6.71094,5.08789 1.485,2.432 1.94914,5.47115 1.39258,9.11914 -0.49797,3.264 -1.58725,6.20804 -3.26758,8.83203 -1.61633,2.624 -3.68583,4.86471 -6.20899,6.72071 -2.44939,1.792 -5.22399,3.20061 -8.32421,4.22461 -3.09047,0.96 -6.33262,1.43945 -9.72461,1.43945 h -25.60352 l 2.14844,-7.67969 z"
         style="font-style:italic;font-size:96px;line-height:0.6;font-family:'Helvetica Neue';-inkscape-font-specification:'Helvetica Neue, Italic';letter-spacing:-2.59px;display:inline;fill:none;fill-opacity:1;stroke-width:2.33979139;stroke-linejoin:bevel;stroke:#29313d;stroke-opacity:1;stroke-dasharray:none"
         id="path59"
         sodipodi:nodetypes="ccccssccsccsscscsccccsssccccccscccsccc" />
      <g
         id="g77"
         transform="rotate(180,317.95745,331.8437)"
         style="fill:none;fill-opacity:1;stroke:#29313d;stroke-opacity:1;stroke-width:2.33979139;stroke-dasharray:none">
        <path
           d="m 178.28125,150.98242 -2.11133,9.98438 h 9.11914 l 2.09375,-9.98438 z"
           style="font-style:italic;font-size:96px;line-height:0.6;font-family:'Helvetica Neue';-inkscape-font-specification:'Helvetica Neue, Italic';letter-spacing:-2.59px;display:inline;fill:none;fill-opacity:1;stroke-width:2.33979139;stroke-linejoin:bevel;stroke:#29313d;stroke-opacity:1;stroke-dasharray:none"
           id="path76" />
        <path
           d="m 190.66602,92.421875 -10.48438,49.572265 h 9.08984 c 2.92242,-13.97232 5.91134,-27.93064 8.88282,-41.89258 h 17.58203 c 1.728,0 3.3617,0.16047 4.90625,0.48047 1.55565,0.256 2.87603,0.76716 3.95898,1.53516 1.14694,0.768 1.98829,1.82397 2.52344,3.16797 0.53516,1.34396 0.61981,3.07358 0.25391,5.18554 -0.21067,1.21599 -0.6791,2.62266 -1.4043,4.22266 -0.65011,1.536 -1.70412,3.00802 -3.16406,4.41602 -1.44884,1.34396 -3.37689,2.49703 -5.78321,3.45703 -2.34227,0.96 -5.30663,1.43945 -8.89062,1.43945 h -5.54688 l -1.61328,7.67969 h 3.91016 3.64844 c 1.01291,0.064 1.99955,0.28787 2.95703,0.67187 0.95747,0.384 1.69802,1.08928 2.22461,2.11328 0.5266,1.02399 0.71875,2.49602 0.57812,4.41602 -0.0656,1.856 -0.61985,4.31866 -1.66406,7.39062 -1.31384,3.51999 -2.15502,6.52943 -2.52344,9.02539 -0.36843,2.49599 -0.43913,4.38407 -0.21289,5.66407 h 9.50391 c -0.47116,-1.344 -0.64914,-2.72091 -0.53321,-4.12891 0.11594,-1.408 0.36503,-2.84831 0.74805,-4.32031 0.39411,-1.536 0.84835,-3.03972 1.35938,-4.51172 0.5221,-1.536 0.97893,-3.07142 1.37304,-4.60742 0.49137,-1.728 0.78004,-3.39219 0.86524,-4.99219 0.1492,-1.6 0.0457,-3.04031 -0.3086,-4.32031 -0.27915,-1.344 -0.84544,-2.49508 -1.70312,-3.45508 -0.79368,-0.96 -1.88885,-1.66528 -3.2832,-2.11328 l 0.0332,-0.19141 c 2.35944,-0.32 4.56098,-1.02333 6.60547,-2.11133 2.1085,-1.088 3.97905,-2.4649 5.61133,-4.1289 1.63224,-1.664 3.01,-3.52036 4.13281,-5.56836 1.1339,-2.112 1.89966,-4.31905 2.29883,-6.62305 0.58765,-3.39199 0.43684,-6.20923 -0.45508,-8.44922 -0.82793,-2.239984 -2.18335,-4.031012 -4.0625,-5.374998 -1.87915,-1.343992 -4.1492,-2.273156 -6.8125,-2.785156 -2.58821,-0.575996 -5.32121,-0.863281 -8.20117,-0.863281 z"
           style="font-style:italic;font-size:96px;line-height:0.6;font-family:'Helvetica Neue';-inkscape-font-specification:'Helvetica Neue, Italic';letter-spacing:-2.59px;display:inline;fill:none;fill-opacity:1;stroke-width:2.33979139;stroke-linejoin:bevel;stroke:#29313d;stroke-opacity:1;stroke-dasharray:none"
           id="path77"
           sodipodi:nodetypes="ccccsccsscccsccccssccsccscccccccccscscscsc" />
      </g>
      <g
         id="g79"
         transform="translate(336.91134,410.29872)"
         style="fill:none;fill-opacity:1;stroke:#29313d;stroke-opacity:1;stroke-width:2.33979139;stroke-dasharray:none">
        <path
           d="m 178.28125,150.98242 -2.11133,9.98438 h 9.11914 l 2.09375,-9.98438 z"
           style="font-style:italic;font-size:96px;line-height:0.6;font-family:'Helvetica Neue';-inkscape-font-specification:'Helvetica Neue, Italic';letter-spacing:-2.59px;display:inline;fill:none;fill-opacity:1;stroke-width:2.33979139;stroke-linejoin:bevel;stroke:#29313d;stroke-opacity:1;stroke-dasharray:none"
           id="path78" />
        <path
           d="m 190.66602,92.421875 -10.48438,49.572265 h 9.08984 c 2.92242,-13.97232 5.91134,-27.93064 8.88282,-41.89258 h 17.58203 c 1.728,0 3.3617,0.16047 4.90625,0.48047 1.55565,0.256 2.87603,0.76716 3.95898,1.53516 1.14694,0.768 1.98829,1.82397 2.52344,3.16797 0.53516,1.34396 0.61981,3.07358 0.25391,5.18554 -0.21067,1.21599 -0.6791,2.62266 -1.4043,4.22266 -0.65011,1.536 -1.70412,3.00802 -3.16406,4.41602 -1.44884,1.34396 -3.37689,2.49703 -5.78321,3.45703 -2.34227,0.96 -5.30663,1.43945 -8.89062,1.43945 h -5.54688 l -1.61328,7.67969 h 3.91016 3.64844 c 1.01291,0.064 1.99955,0.28787 2.95703,0.67187 0.95747,0.384 1.69802,1.08928 2.22461,2.11328 0.5266,1.02399 0.71875,2.49602 0.57812,4.41602 -0.0656,1.856 -0.61985,4.31866 -1.66406,7.39062 -1.31384,3.51999 -2.15502,6.52943 -2.52344,9.02539 -0.36843,2.49599 -0.43913,4.38407 -0.21289,5.66407 h 9.50391 c -0.47116,-1.344 -0.64914,-2.72091 -0.53321,-4.12891 0.11594,-1.408 0.36503,-2.84831 0.74805,-4.32031 0.39411,-1.536 0.84835,-3.03972 1.35938,-4.51172 0.5221,-1.536 0.97893,-3.07142 1.37304,-4.60742 0.49137,-1.728 0.78004,-3.39219 0.86524,-4.99219 0.1492,-1.6 0.0457,-3.04031 -0.3086,-4.32031 -0.27915,-1.344 -0.84544,-2.49508 -1.70312,-3.45508 -0.79368,-0.96 -1.88885,-1.66528 -3.2832,-2.11328 l 0.0332,-0.19141 c 2.35944,-0.32 4.56098,-1.02333 6.60547,-2.11133 2.1085,-1.088 3.97905,-2.4649 5.61133,-4.1289 1.63224,-1.664 3.01,-3.52036 4.13281,-5.56836 1.1339,-2.112 1.89966,-4.31905 2.29883,-6.62305 0.58765,-3.39199 0.43684,-6.20923 -0.45508,-8.44922 -0.82793,-2.239984 -2.18335,-4.031012 -4.0625,-5.374998 -1.87915,-1.343992 -4.1492,-2.273156 -6.8125,-2.785156 -2.58821,-0.575996 -5.32121,-0.863281 -8.20117,-0.863281 z"
           style="font-style:italic;font-size:96px;line-height:0.6;font-family:'Helvetica Neue';-inkscape-font-specification:'Helvetica Neue, Italic';letter-spacing:-2.59px;display:inline;fill:none;fill-opacity:1;stroke-width:2.33979139;stroke-linejoin:bevel;stroke:#29313d;stroke-opacity:1;stroke-dasharray:none"
           id="path79"
           sodipodi:nodetypes="ccccsccsscccsccccssccsccscccccccccscscscsc" />
      </g>
      <g
         id="g1"
         transform="rotate(180,486.41311,536.99306)"
         style="stroke:#29313d;stroke-opacity:1;fill:none;stroke-width:2.33979139;stroke-dasharray:none">
        <text
           xml:space="preserve"
           style="font-style:italic;font-size:96px;line-height:0.6;font-family:'Helvetica Neue';-inkscape-font-specification:'Helvetica Neue, Italic';letter-spacing:-2.59px;fill:none;fill-opacity:1;stroke-width:2.33979139;stroke-linejoin:bevel;stroke:#29313d;stroke-opacity:1;stroke-dasharray:none"
           x="460.58911"
           y="561.85706"
           id="text81"><tspan
             sodipodi:role="line"
             id="tspan81"
             x="460.58911"
             y="561.85706">o</tspan></text>
        <path
           d="m 480.61748,538.25805 c 0,0.72063 0.11499,1.38759 0.34498,2.00088 0.22999,0.59797 0.55963,1.11927 0.98894,1.56391 0.42931,0.42931 0.95061,0.76662 1.5639,1.01194 0.62863,0.24531 1.33392,0.36797 2.11587,0.36797 1.04261,0 1.97022,-0.20699 2.78283,-0.62096 0.81262,-0.41397 1.50258,-0.96594 2.06988,-1.6559 0.5673,-0.70529 0.99661,-1.51024 1.28792,-2.41485 0.29131,-0.90461 0.43697,-1.83989 0.43697,-2.80583 0,-1.6099 -0.42164,-2.82883 -1.26492,-3.65678 -0.84328,-0.84328 -2.06987,-1.26492 -3.67978,-1.26492 -1.0426,0 -1.97788,0.20699 -2.80583,0.62096 -0.81261,0.41397 -1.51024,0.96594 -2.09287,1.6559 -0.5673,0.68996 -1.00427,1.48724 -1.31092,2.39185 -0.29131,0.90461 -0.43697,1.83989 -0.43697,2.80583 z"
           id="text83"
           style="font-style:italic;font-size:22.9986px;line-height:0.6;font-family:'Helvetica Neue';-inkscape-font-specification:'Helvetica Neue, Italic';letter-spacing:-0.620484px;fill:none;fill-opacity:1;stroke-width:2.33979139;stroke-linejoin:bevel;stroke:#29313d;stroke-opacity:1;stroke-dasharray:none"
           aria-label="o"
           sodipodi:nodetypes="scccsscsscscccs" />
      </g>
    </g>
  </g>
</svg>
